<svg width="329" height="48" viewBox="0 0 329 48" fill="none" xmlns="http://www.w3.org/2000/svg">
<path d="M12.4 46.24C10.192 46.24 8.192 45.696 6.4 44.608C4.64 43.52 3.248 41.952 2.224 39.904C1.2 37.824 0.688 35.376 0.688 32.56C0.688 27.696 1.728 23.2 3.808 19.072C5.888 14.912 8.96 11.584 13.024 9.088C17.088 6.56 21.968 5.296 27.664 5.296C29.136 5.296 30.704 5.408 32.368 5.632C34.064 5.856 35.6 6.192 36.976 6.64C37.872 6.896 38.32 7.536 38.32 8.56C38.32 9.392 38 10.176 37.36 10.912C36.752 11.648 36.032 12.016 35.2 12.016C34.944 12.016 34.752 12 34.624 11.968C32.96 11.584 31.536 11.312 30.352 11.152C29.168 10.96 27.92 10.864 26.608 10.864C22.544 10.864 19.088 11.856 16.24 13.84C13.392 15.792 11.264 18.384 9.856 21.616C8.448 24.848 7.744 28.336 7.744 32.08C7.744 34.8 8.272 36.912 9.328 38.416C10.416 39.888 11.824 40.624 13.552 40.624C15.504 40.624 17.216 39.824 18.688 38.224C20.16 36.624 21.504 34.032 22.72 30.448C23.936 26.864 25.136 22 26.32 15.856C26.512 14.96 26.896 14.352 27.472 14.032C28.048 13.712 28.816 13.552 29.776 13.552C32.048 13.552 33.184 14.288 33.184 15.76C33.184 16.016 33.136 16.336 33.04 16.72C32.208 19.824 31.44 23.264 30.736 27.04C30.064 30.784 29.728 33.632 29.728 35.584C29.728 37.312 29.984 38.576 30.496 39.376C31.008 40.144 31.792 40.528 32.848 40.528C33.872 40.528 34.848 40.192 35.776 39.52C36.704 38.816 37.872 37.632 39.28 35.968C39.664 35.52 40.096 35.296 40.576 35.296C40.992 35.296 41.312 35.488 41.536 35.872C41.792 36.256 41.92 36.784 41.92 37.456C41.92 38.704 41.616 39.696 41.008 40.432C39.44 42.32 37.904 43.76 36.4 44.752C34.896 45.744 33.056 46.24 30.88 46.24C28.64 46.24 26.832 45.6 25.456 44.32C24.08 43.008 23.216 41.168 22.864 38.8C20.496 43.76 17.008 46.24 12.4 46.24ZM59.4464 35.296C59.8624 35.296 60.1824 35.488 60.4064 35.872C60.6624 36.256 60.7904 36.784 60.7904 37.456C60.7904 38.736 60.4864 39.728 59.8784 40.432C58.6944 41.872 57.0144 43.2 54.8384 44.416C52.6944 45.632 50.3904 46.24 47.9264 46.24C44.5664 46.24 41.9584 45.328 40.1024 43.504C38.2464 41.68 37.3184 39.184 37.3184 36.016C37.3184 33.808 37.7824 31.76 38.7104 29.872C39.6384 27.952 40.9184 26.432 42.5504 25.312C44.2144 24.192 46.0864 23.632 48.1664 23.632C50.0224 23.632 51.5104 24.192 52.6304 25.312C53.7504 26.4 54.3104 27.888 54.3104 29.776C54.3104 31.984 53.5104 33.888 51.9104 35.488C50.3424 37.056 47.6704 38.304 43.8944 39.232C44.6944 40.704 46.2144 41.44 48.4544 41.44C49.8944 41.44 51.5264 40.944 53.3504 39.952C55.2064 38.928 56.8064 37.6 58.1504 35.968C58.5344 35.52 58.9664 35.296 59.4464 35.296ZM47.3504 28.336C46.1664 28.336 45.1584 29.024 44.3264 30.4C43.5264 31.776 43.1264 33.44 43.1264 35.392V35.488C45.0144 35.04 46.5024 34.368 47.5904 33.472C48.6784 32.576 49.2224 31.536 49.2224 30.352C49.2224 29.744 49.0464 29.264 48.6944 28.912C48.3744 28.528 47.9264 28.336 47.3504 28.336ZM65.8101 47.296C64.1461 47.296 62.8661 46.912 61.9701 46.144C61.1061 45.376 60.6741 44.512 60.6741 43.552C60.6741 42.72 60.9781 42 61.5861 41.392C62.1941 40.784 63.0901 40.48 64.2741 40.48C64.6901 40.48 65.1701 40.528 65.7141 40.624C66.2901 40.688 66.7221 40.736 67.0101 40.768C66.9781 39.936 66.7861 39.152 66.4341 38.416C66.1141 37.68 65.6981 36.976 65.1861 36.304C64.6741 35.6 64.1941 34.992 63.7461 34.48C62.7541 36.368 61.7621 37.936 60.7701 39.184C59.8101 40.432 58.7541 41.616 57.6021 42.736C57.0261 43.312 56.4181 43.6 55.7781 43.6C55.2661 43.6 54.8501 43.424 54.5301 43.072C54.2101 42.688 54.0501 42.224 54.0501 41.68C54.0501 41.04 54.2741 40.448 54.7221 39.904L55.3461 39.136C57.1061 36.96 58.4341 35.168 59.3301 33.76C59.8741 32.832 60.5141 31.6 61.2501 30.064C61.9861 28.496 62.7061 26.88 63.4101 25.216C64.0181 23.808 65.2821 23.104 67.2021 23.104C68.0981 23.104 68.7221 23.184 69.0741 23.344C69.4261 23.504 69.6021 23.76 69.6021 24.112C69.6021 24.304 69.5381 24.608 69.4101 25.024C69.2821 25.44 69.1061 25.856 68.8821 26.272C68.3061 27.424 68.0181 28.4 68.0181 29.2C68.0181 29.68 68.1781 30.208 68.4981 30.784C68.8501 31.36 69.3781 32.08 70.0821 32.944C71.1061 34.288 71.8741 35.44 72.3861 36.4C72.9301 37.328 73.2021 38.352 73.2021 39.472C73.2021 39.792 73.1701 40.24 73.1061 40.816C74.6741 40.208 76.5141 38.592 78.6261 35.968C79.0101 35.52 79.4421 35.296 79.9221 35.296C80.3381 35.296 80.6581 35.488 80.8821 35.872C81.1381 36.256 81.2661 36.784 81.2661 37.456C81.2661 38.672 80.9621 39.664 80.3541 40.432C78.7541 42.416 77.2181 43.776 75.7461 44.512C74.3061 45.216 72.5141 45.6 70.3701 45.664C69.0901 46.752 67.5701 47.296 65.8101 47.296ZM98.7745 35.296C99.1905 35.296 99.5105 35.488 99.7345 35.872C99.9905 36.256 100.119 36.784 100.119 37.456C100.119 38.736 99.8145 39.728 99.2065 40.432C97.8305 42.128 96.3265 43.52 94.6945 44.608C93.0625 45.696 91.1905 46.24 89.0785 46.24C82.5505 46.24 79.2865 41.648 79.2865 32.464C79.2865 31.056 79.3345 29.632 79.4305 28.192H77.5585C76.5985 28.192 75.9425 28.016 75.5905 27.664C75.2705 27.312 75.1105 26.752 75.1105 25.984C75.1105 24.192 75.8305 23.296 77.2705 23.296H80.0065C80.5505 19.776 81.3825 16.56 82.5025 13.648C83.6225 10.736 84.9665 8.416 86.5345 6.688C88.1345 4.96 89.8465 4.096 91.6705 4.096C93.0145 4.096 94.0705 4.688 94.8385 5.872C95.6065 7.056 95.9905 8.544 95.9905 10.336C95.9905 15.296 93.9105 19.616 89.7505 23.296H95.1265C95.6385 23.296 96.0065 23.408 96.2305 23.632C96.4545 23.856 96.5665 24.272 96.5665 24.88C96.5665 27.088 94.7585 28.192 91.1425 28.192H85.2865C85.2225 29.792 85.1905 31.04 85.1905 31.936C85.1905 35.264 85.5745 37.6 86.3425 38.944C87.1425 40.288 88.3905 40.96 90.0865 40.96C91.4625 40.96 92.6785 40.544 93.7345 39.712C94.7905 38.88 96.0385 37.632 97.4785 35.968C97.8625 35.52 98.2945 35.296 98.7745 35.296ZM90.3745 8.704C89.8945 8.704 89.3505 9.312 88.7425 10.528C88.1665 11.712 87.6065 13.376 87.0625 15.52C86.5505 17.632 86.1185 19.984 85.7665 22.576C87.6545 20.944 89.0625 19.12 89.9905 17.104C90.9505 15.056 91.4305 13.2 91.4305 11.536C91.4305 9.648 91.0785 8.704 90.3745 8.704ZM122.85 35.296C123.266 35.296 123.586 35.488 123.81 35.872C124.066 36.256 124.194 36.784 124.194 37.456C124.194 38.736 123.89 39.728 123.282 40.432C121.81 42.128 120.29 43.52 118.722 44.608C117.186 45.696 115.426 46.24 113.442 46.24C111.81 46.24 110.578 45.776 109.746 44.848C108.914 43.888 108.498 42.512 108.498 40.72C108.498 39.824 108.722 38.224 109.17 35.92C109.586 33.904 109.794 32.512 109.794 31.744C109.794 31.232 109.618 30.976 109.266 30.976C108.85 30.976 108.258 31.52 107.49 32.608C106.722 33.664 105.954 35.072 105.186 36.832C104.418 38.592 103.794 40.448 103.314 42.4C102.706 44.96 101.202 46.24 98.8023 46.24C97.8423 46.24 97.2023 45.904 96.8823 45.232C96.5943 44.528 96.4503 43.28 96.4503 41.488C96.4503 40.464 96.4663 39.648 96.4983 39.04L96.5463 35.2C96.5463 30.272 97.0423 25.136 98.0343 19.792C99.0583 14.448 100.546 9.968 102.498 6.352C104.482 2.704 106.85 0.879997 109.602 0.879997C111.074 0.879997 112.258 1.52 113.154 2.8C114.082 4.048 114.546 5.68 114.546 7.696C114.546 10.928 113.602 14.288 111.714 17.776C109.826 21.232 106.754 25.28 102.498 29.92C102.402 31.584 102.354 33.296 102.354 35.056C103.41 32.336 104.578 30.128 105.858 28.432C107.17 26.704 108.45 25.472 109.698 24.736C110.978 24 112.146 23.632 113.202 23.632C115.282 23.632 116.322 24.672 116.322 26.752C116.322 28 115.97 30.256 115.266 33.52C114.658 36.304 114.354 38.144 114.354 39.04C114.354 40.32 114.818 40.96 115.746 40.96C116.386 40.96 117.138 40.576 118.002 39.808C118.898 39.008 120.082 37.728 121.554 35.968C121.938 35.52 122.37 35.296 122.85 35.296ZM108.594 5.632C108.018 5.632 107.378 6.464 106.674 8.128C105.97 9.76 105.282 11.984 104.61 14.8C103.97 17.584 103.442 20.624 103.026 23.92C105.01 21.584 106.642 19.04 107.922 16.288C109.234 13.536 109.89 11.04 109.89 8.8C109.89 7.776 109.778 6.992 109.554 6.448C109.33 5.904 109.01 5.632 108.594 5.632ZM141.712 35.296C142.128 35.296 142.448 35.488 142.672 35.872C142.928 36.256 143.056 36.784 143.056 37.456C143.056 38.736 142.752 39.728 142.144 40.432C140.96 41.872 139.28 43.2 137.104 44.416C134.96 45.632 132.656 46.24 130.192 46.24C126.832 46.24 124.224 45.328 122.368 43.504C120.512 41.68 119.584 39.184 119.584 36.016C119.584 33.808 120.048 31.76 120.976 29.872C121.904 27.952 123.184 26.432 124.816 25.312C126.48 24.192 128.352 23.632 130.432 23.632C132.288 23.632 133.776 24.192 134.896 25.312C136.016 26.4 136.576 27.888 136.576 29.776C136.576 31.984 135.776 33.888 134.176 35.488C132.608 37.056 129.936 38.304 126.16 39.232C126.96 40.704 128.48 41.44 130.72 41.44C132.16 41.44 133.792 40.944 135.616 39.952C137.472 38.928 139.072 37.6 140.416 35.968C140.8 35.52 141.232 35.296 141.712 35.296ZM129.616 28.336C128.432 28.336 127.424 29.024 126.592 30.4C125.792 31.776 125.392 33.44 125.392 35.392V35.488C127.28 35.04 128.768 34.368 129.856 33.472C130.944 32.576 131.488 31.536 131.488 30.352C131.488 29.744 131.312 29.264 130.96 28.912C130.64 28.528 130.192 28.336 129.616 28.336ZM160.556 35.296C160.972 35.296 161.292 35.488 161.516 35.872C161.772 36.256 161.9 36.784 161.9 37.456C161.9 38.736 161.596 39.728 160.988 40.432C159.612 42.128 158.108 43.52 156.476 44.608C154.844 45.696 152.972 46.24 150.86 46.24C144.332 46.24 141.068 41.648 141.068 32.464C141.068 31.056 141.116 29.632 141.212 28.192H139.34C138.38 28.192 137.724 28.016 137.372 27.664C137.052 27.312 136.892 26.752 136.892 25.984C136.892 24.192 137.612 23.296 139.052 23.296H141.788C142.332 19.776 143.164 16.56 144.284 13.648C145.404 10.736 146.748 8.416 148.316 6.688C149.916 4.96 151.628 4.096 153.452 4.096C154.796 4.096 155.852 4.688 156.62 5.872C157.388 7.056 157.772 8.544 157.772 10.336C157.772 15.296 155.692 19.616 151.532 23.296H156.908C157.42 23.296 157.788 23.408 158.012 23.632C158.236 23.856 158.348 24.272 158.348 24.88C158.348 27.088 156.54 28.192 152.924 28.192H147.068C147.004 29.792 146.972 31.04 146.972 31.936C146.972 35.264 147.356 37.6 148.124 38.944C148.924 40.288 150.172 40.96 151.868 40.96C153.244 40.96 154.46 40.544 155.516 39.712C156.572 38.88 157.82 37.632 159.26 35.968C159.644 35.52 160.076 35.296 160.556 35.296ZM152.156 8.704C151.676 8.704 151.132 9.312 150.524 10.528C149.948 11.712 149.388 13.376 148.844 15.52C148.332 17.632 147.9 19.984 147.548 22.576C149.436 20.944 150.844 19.12 151.772 17.104C152.732 15.056 153.212 13.2 153.212 11.536C153.212 9.648 152.86 8.704 152.156 8.704ZM164.28 20.464C162.936 20.464 161.928 20.16 161.256 19.552C160.584 18.912 160.248 18.032 160.248 16.912C160.248 15.792 160.68 14.864 161.544 14.128C162.44 13.36 163.544 12.976 164.856 12.976C166.04 12.976 167 13.264 167.736 13.84C168.472 14.416 168.84 15.232 168.84 16.288C168.84 17.568 168.424 18.592 167.592 19.36C166.76 20.096 165.656 20.464 164.28 20.464ZM163.896 46.24C161.816 46.24 160.296 45.504 159.336 44.032C158.408 42.56 157.944 40.608 157.944 38.176C157.944 36.736 158.12 34.896 158.472 32.656C158.856 30.384 159.336 28.272 159.912 26.32C160.2 25.296 160.584 24.592 161.064 24.208C161.544 23.824 162.312 23.632 163.368 23.632C165 23.632 165.816 24.176 165.816 25.264C165.816 26.064 165.512 27.92 164.904 30.832C164.136 34.352 163.752 36.736 163.752 37.984C163.752 38.944 163.88 39.68 164.136 40.192C164.392 40.704 164.824 40.96 165.432 40.96C166.008 40.96 166.728 40.56 167.592 39.76C168.456 38.96 169.608 37.696 171.048 35.968C171.432 35.52 171.864 35.296 172.344 35.296C172.76 35.296 173.08 35.488 173.304 35.872C173.56 36.256 173.688 36.784 173.688 37.456C173.688 38.736 173.384 39.728 172.776 40.432C169.608 44.304 166.648 46.24 163.896 46.24ZM178.972 46.24C175.836 46.24 173.388 45.36 171.628 43.6C169.9 41.808 169.036 39.456 169.036 36.544C169.036 33.952 169.548 31.68 170.572 29.728C171.596 27.776 172.924 26.272 174.556 25.216C176.188 24.16 177.9 23.632 179.692 23.632C181.452 23.632 182.812 24.16 183.772 25.216C184.764 26.24 185.26 27.568 185.26 29.2C185.26 30.544 184.956 31.68 184.348 32.608C183.772 33.536 183.004 34 182.044 34C181.436 34 180.94 33.856 180.556 33.568C180.204 33.28 180.028 32.88 180.028 32.368C180.028 32.144 180.06 31.888 180.124 31.6C180.188 31.312 180.236 31.104 180.268 30.976C180.428 30.496 180.508 30.048 180.508 29.632C180.508 29.216 180.396 28.896 180.172 28.672C179.98 28.448 179.692 28.336 179.308 28.336C178.572 28.336 177.884 28.672 177.244 29.344C176.604 29.984 176.092 30.864 175.708 31.984C175.324 33.104 175.132 34.336 175.132 35.68C175.132 39.392 176.748 41.248 179.98 41.248C181.292 41.248 182.7 40.816 184.204 39.952C185.74 39.056 187.244 37.728 188.716 35.968C189.1 35.52 189.532 35.296 190.012 35.296C190.428 35.296 190.748 35.488 190.972 35.872C191.228 36.256 191.356 36.784 191.356 37.456C191.356 38.672 191.052 39.664 190.444 40.432C188.94 42.288 187.132 43.728 185.02 44.752C182.94 45.744 180.924 46.24 178.972 46.24Z" fill="#334155"/>
<path d="M231.924 35.296C232.34 35.296 232.66 35.488 232.884 35.872C233.14 36.256 233.268 36.784 233.268 37.456C233.268 38.704 232.964 39.696 232.356 40.432C229.188 44.304 225.812 46.24 222.228 46.24C219.124 46.24 216.644 45.04 214.788 42.64C212.932 40.24 212.004 36.8 212.004 32.32C212.004 31.232 212.052 30.144 212.148 29.056C210.036 29.44 207.732 29.728 205.236 29.92C203.572 30.048 202.436 30.128 201.828 30.16C201.188 33.424 200.292 37.424 199.14 42.16C198.468 44.944 197.188 46.336 195.3 46.336C193.252 46.336 192.228 45.408 192.228 43.552C192.228 43.136 192.308 42.56 192.468 41.824C193.556 37.44 194.42 33.728 195.06 30.688L192.756 30.784C191.7 30.784 190.932 30.608 190.452 30.256C189.972 29.872 189.732 29.264 189.732 28.432C189.732 27.376 190.036 26.608 190.644 26.128C191.252 25.616 192.26 25.328 193.668 25.264L196.212 25.168C197.044 20.656 197.46 17.216 197.46 14.848C197.46 13.344 197.236 12.32 196.788 11.776C196.34 11.232 195.748 10.96 195.012 10.96C192.772 10.96 190.244 12.832 187.428 16.576C187.012 17.12 186.548 17.392 186.036 17.392C185.588 17.392 185.204 17.184 184.884 16.768C184.564 16.352 184.404 15.824 184.404 15.184C184.404 14.192 184.804 13.136 185.604 12.016C187.012 10.064 188.788 8.464 190.932 7.216C193.076 5.936 195.252 5.296 197.46 5.296C199.54 5.296 201.14 6.016 202.26 7.456C203.412 8.864 203.988 11.072 203.988 14.08C203.988 16.736 203.604 20.336 202.836 24.88L207.54 24.64C209.556 24.544 211.284 24.384 212.724 24.16C213.3 20.64 214.18 17.344 215.364 14.272C216.548 11.2 218.02 8.704 219.78 6.784C221.54 4.864 223.508 3.904 225.684 3.904C227.284 3.904 228.548 4.544 229.476 5.824C230.404 7.072 230.868 8.72 230.868 10.768C230.868 18.704 226.82 24.208 218.724 27.28C218.628 28.56 218.58 29.888 218.58 31.264C218.58 34.624 218.996 37.008 219.828 38.416C220.66 39.824 221.828 40.528 223.332 40.528C224.644 40.528 225.844 40.192 226.932 39.52C228.02 38.816 229.252 37.632 230.628 35.968C231.012 35.52 231.444 35.296 231.924 35.296ZM225.444 8.08C224.74 8.08 223.988 8.72 223.188 10C222.42 11.28 221.684 13.024 220.98 15.232C220.276 17.44 219.716 19.856 219.3 22.48C221.86 21.424 223.748 19.92 224.964 17.968C226.18 16.016 226.788 13.504 226.788 10.432C226.788 9.696 226.66 9.12 226.404 8.704C226.148 8.288 225.828 8.08 225.444 8.08ZM260.097 31.264C260.513 31.264 260.833 31.472 261.057 31.888C261.281 32.304 261.393 32.832 261.393 33.472C261.393 35.008 260.929 35.92 260.001 36.208C258.081 36.88 255.969 37.264 253.665 37.36C253.057 40.048 251.857 42.208 250.065 43.84C248.273 45.44 246.241 46.24 243.969 46.24C242.049 46.24 240.401 45.776 239.025 44.848C237.681 43.92 236.657 42.688 235.953 41.152C235.249 39.616 234.896 37.952 234.896 36.16C234.896 33.728 235.361 31.568 236.289 29.68C237.217 27.76 238.497 26.272 240.129 25.216C241.761 24.128 243.569 23.584 245.553 23.584C247.985 23.584 249.937 24.432 251.409 26.128C252.913 27.792 253.793 29.856 254.049 32.32C255.553 32.224 257.345 31.904 259.425 31.36C259.681 31.296 259.905 31.264 260.097 31.264ZM244.353 41.152C245.377 41.152 246.257 40.736 246.993 39.904C247.761 39.072 248.273 37.872 248.529 36.304C247.537 35.632 246.769 34.752 246.225 33.664C245.713 32.576 245.457 31.424 245.457 30.208C245.457 29.696 245.505 29.184 245.601 28.672H245.361C244.081 28.672 243.009 29.296 242.145 30.544C241.313 31.76 240.897 33.488 240.897 35.728C240.897 37.488 241.233 38.832 241.905 39.76C242.609 40.688 243.425 41.152 244.353 41.152ZM260.681 46.24C259.465 46.24 258.601 45.6 258.089 44.32C257.609 43.04 257.369 40.992 257.369 38.176C257.369 34.016 257.961 30.064 259.145 26.32C259.433 25.392 259.897 24.72 260.537 24.304C261.209 23.856 262.137 23.632 263.321 23.632C263.961 23.632 264.409 23.712 264.665 23.872C264.921 24.032 265.049 24.336 265.049 24.784C265.049 25.296 264.809 26.448 264.329 28.24C264.009 29.52 263.753 30.64 263.561 31.6C263.369 32.528 263.209 33.696 263.081 35.104C263.945 32.608 264.969 30.496 266.153 28.768C267.369 27.04 268.601 25.76 269.849 24.928C271.129 24.064 272.329 23.632 273.449 23.632C274.569 23.632 275.353 23.888 275.801 24.4C276.281 24.912 276.521 25.696 276.521 26.752C276.521 27.776 276.217 29.632 275.609 32.32C275.353 33.472 275.177 34.336 275.081 34.912C276.681 30.976 278.457 28.112 280.409 26.32C282.361 24.528 284.185 23.632 285.881 23.632C287.961 23.632 289.001 24.672 289.001 26.752C289.001 28 288.649 30.256 287.945 33.52C287.337 36.304 287.033 38.144 287.033 39.04C287.033 40.32 287.497 40.96 288.425 40.96C289.065 40.96 289.817 40.576 290.681 39.808C291.577 39.008 292.761 37.728 294.233 35.968C294.617 35.52 295.049 35.296 295.529 35.296C295.945 35.296 296.265 35.488 296.489 35.872C296.745 36.256 296.873 36.784 296.873 37.456C296.873 38.736 296.569 39.728 295.961 40.432C294.585 42.128 293.097 43.52 291.497 44.608C289.929 45.696 288.137 46.24 286.121 46.24C284.489 46.24 283.257 45.776 282.425 44.848C281.593 43.888 281.177 42.512 281.177 40.72C281.177 39.824 281.401 38.224 281.849 35.92C282.265 33.904 282.473 32.512 282.473 31.744C282.473 31.232 282.297 30.976 281.945 30.976C281.529 30.976 280.937 31.52 280.169 32.608C279.401 33.664 278.633 35.072 277.865 36.832C277.097 38.592 276.473 40.448 275.993 42.4C275.641 43.936 275.225 44.96 274.745 45.472C274.297 45.984 273.561 46.24 272.537 46.24C271.481 46.24 270.681 45.744 270.137 44.752C269.625 43.728 269.369 42.496 269.369 41.056C269.369 39.84 269.529 38.08 269.849 35.776C270.105 33.728 270.233 32.384 270.233 31.744C270.233 31.232 270.057 30.976 269.705 30.976C269.225 30.976 268.617 31.552 267.881 32.704C267.145 33.856 266.425 35.328 265.721 37.12C265.049 38.912 264.505 40.672 264.089 42.4C263.737 43.904 263.321 44.928 262.841 45.472C262.393 45.984 261.673 46.24 260.681 46.24ZM314.4 35.296C314.816 35.296 315.136 35.488 315.359 35.872C315.616 36.256 315.744 36.784 315.744 37.456C315.744 38.736 315.44 39.728 314.832 40.432C313.648 41.872 311.968 43.2 309.792 44.416C307.648 45.632 305.344 46.24 302.88 46.24C299.52 46.24 296.912 45.328 295.056 43.504C293.2 41.68 292.271 39.184 292.271 36.016C292.271 33.808 292.736 31.76 293.664 29.872C294.592 27.952 295.872 26.432 297.504 25.312C299.168 24.192 301.04 23.632 303.12 23.632C304.976 23.632 306.464 24.192 307.584 25.312C308.704 26.4 309.264 27.888 309.264 29.776C309.264 31.984 308.464 33.888 306.864 35.488C305.296 37.056 302.624 38.304 298.848 39.232C299.648 40.704 301.168 41.44 303.408 41.44C304.848 41.44 306.48 40.944 308.304 39.952C310.16 38.928 311.76 37.6 313.104 35.968C313.488 35.52 313.92 35.296 314.4 35.296ZM302.304 28.336C301.12 28.336 300.112 29.024 299.28 30.4C298.48 31.776 298.08 33.44 298.08 35.392V35.488C299.968 35.04 301.456 34.368 302.544 33.472C303.632 32.576 304.176 31.536 304.176 30.352C304.176 29.744 304 29.264 303.648 28.912C303.328 28.528 302.88 28.336 302.304 28.336ZM320.763 47.296C319.099 47.296 317.819 46.912 316.923 46.144C316.059 45.376 315.627 44.512 315.627 43.552C315.627 42.72 315.931 42 316.539 41.392C317.147 40.784 318.043 40.48 319.227 40.48C319.643 40.48 320.123 40.528 320.667 40.624C321.243 40.688 321.675 40.736 321.963 40.768C321.931 39.936 321.739 39.152 321.387 38.416C321.067 37.68 320.651 36.976 320.139 36.304C319.627 35.6 319.147 34.992 318.699 34.48C317.707 36.368 316.715 37.936 315.723 39.184C314.763 40.432 313.707 41.616 312.555 42.736C311.979 43.312 311.371 43.6 310.731 43.6C310.219 43.6 309.803 43.424 309.483 43.072C309.163 42.688 309.003 42.224 309.003 41.68C309.003 41.04 309.227 40.448 309.675 39.904L310.299 39.136C312.059 36.96 313.387 35.168 314.283 33.76C314.859 32.832 315.435 31.728 316.011 30.448C316.619 29.168 317.403 27.424 318.363 25.216C318.971 23.808 320.235 23.104 322.155 23.104C323.051 23.104 323.675 23.184 324.027 23.344C324.379 23.504 324.555 23.76 324.555 24.112C324.555 24.304 324.491 24.608 324.363 25.024C324.235 25.44 324.059 25.856 323.835 26.272C323.259 27.424 322.971 28.4 322.971 29.2C322.971 29.68 323.131 30.208 323.451 30.784C323.803 31.36 324.331 32.08 325.035 32.944C326.059 34.288 326.827 35.44 327.339 36.4C327.883 37.328 328.155 38.352 328.155 39.472C328.155 40.816 327.835 42.096 327.195 43.312C326.587 44.496 325.723 45.456 324.603 46.192C323.483 46.928 322.203 47.296 320.763 47.296Z" fill="#15803D"/>
</svg>
